<?xml version="1.0" encoding="UTF-8"?>
<svg xmlns="http://www.w3.org/2000/svg" height="16px" viewBox="0 0 16 16" width="16px">
    <path d="M8 0.000351429C3.58218 0.000351429 0 3.58183 0 8C0 12.4182 3.58183 15.9996 8 15.9996C12.4185 15.9996 16 12.4182 16 8C16 3.58183 12.4185 0.000351429 8 0.000351429ZM8 2.39234C9.46183 2.39234 10.6464 3.57726 10.6464 5.03839C10.6464 6.49987 9.46183 7.68444 8 7.68444C6.53887 7.68444 5.3543 6.49987 5.3543 5.03839C5.3543 3.57726 6.53887 2.39234 8 2.39234ZM7.99824 13.9081C6.54028 13.9081 5.20495 13.3771 4.175 12.4983C3.9241 12.2843 3.77932 11.9705 3.77932 11.6412C3.77932 10.1594 4.97865 8.97338 6.46086 8.97338H9.53984C11.0224 8.97338 12.2172 10.1594 12.2172 11.6412C12.2172 11.9708 12.0731 12.2839 11.8218 12.4979C10.7922 13.3771 9.45656 13.9081 7.99824 13.9081Z" fill="#ffffff"/>
</svg>
